<svg id="amphora" xmlns="http://www.w3.org/2000/svg" width="124.554" height="173.166" viewBox="0 0 124.554 173.166">
  <path id="Path_10" data-name="Path 10" d="M139.281,371.683h0Z" transform="translate(-116.48 -245.975)" fill="#020048"/>
  <g id="Group_43" data-name="Group 43" transform="translate(0 0)">
    <path id="Path_11" data-name="Path 11" d="M172.228,312.78a4.1,4.1,0,0,0-3.542-2.045H150.169a4.09,4.09,0,0,0-3.542,6.135l9.259,16.036a4.09,4.09,0,0,0,7.084,0l9.259-16.036a4.1,4.1,0,0,0,0-4.09Zm-12.8,16.138L151.852,315.8H167Z" transform="translate(-120.981 -205.64)" fill="#020048"/>
    <path id="Path_12" data-name="Path 12" d="M231.651,310.735a4.1,4.1,0,0,0-3.542,2.045l-9.259,16.037a4.09,4.09,0,0,0,3.542,6.135h18.517a4.09,4.09,0,0,0,3.542-6.135l-9.259-16.036a4.1,4.1,0,0,0-3.541-2.045Zm-7.576,19.154,7.576-13.121,7.575,13.121Z" transform="translate(-168.777 -205.64)" fill="#020048"/>
    <path id="Path_13" data-name="Path 13" d="M306.347,332.906l9.259-16.036a4.09,4.09,0,0,0-3.542-6.135H293.546A4.09,4.09,0,0,0,290,316.87l9.259,16.036a4.09,4.09,0,0,0,7.084,0ZM295.229,315.8H310.38L302.8,328.918Z" transform="translate(-215.866 -205.64)" fill="#020048"/>
    <path id="Path_14" data-name="Path 14" d="M195.245,74.046a47.965,47.965,0,0,0-22.3-32.307,54.812,54.812,0,0,1-5.187-3.1,6.616,6.616,0,0,1-2.473-3.65,6.8,6.8,0,0,1-.19-2.476s1.28-11.528,1.28-11.528h2.533a7.534,7.534,0,0,0,7.526-7.526V5.072A5.077,5.077,0,0,0,171.36,0H157.316a2.531,2.531,0,0,0,0,5.062l14.053.01v8.385a2.467,2.467,0,0,1-2.464,2.464H99.381a2.467,2.467,0,0,1-2.465-2.464l.01-8.394H145.46a2.531,2.531,0,0,0,0-5.062H96.926a5.077,5.077,0,0,0-5.072,5.072v8.385a7.535,7.535,0,0,0,7.526,7.526h2.533l1.28,11.529a6.806,6.806,0,0,1-.106,2.122c-.762,3.635-4.171,5-7.065,6.706a49.225,49.225,0,0,0-6.837,4.771,46.285,46.285,0,0,0-6.169,6.306,48.1,48.1,0,0,0-9.975,21.629c-2.579,13.123-.906,26.355,4.971,39.328a91.057,91.057,0,0,0,21.134,28.7c2.89,2.691,7.193,5.166,6.271,9.793l-2.99,14.944a5.315,5.315,0,0,0,5.212,6.358h13.85a2.531,2.531,0,0,0,0-5.062h-13.85a.253.253,0,0,1-.248-.3l2.99-14.944a11.462,11.462,0,0,0-3.723-10.886l-1.093-.947a97.569,97.569,0,0,1-11.521-11.713h1.465a4.09,4.09,0,0,0,3.541-6.135l-9.26-16.036a4.089,4.089,0,0,0-7.082,0l-1.07,1.853a64.666,64.666,0,0,1-3.093-9.516h111.2A64.634,64.634,0,0,1,186.649,109l-1.07-1.855a4.089,4.089,0,0,0-7.082,0l-9.259,16.035a4.09,4.09,0,0,0,3.541,6.136h1.408a111.54,111.54,0,0,1-12.558,12.66,11.461,11.461,0,0,0-3.722,10.885L160.9,167.8a.253.253,0,0,1-.249.3H133.409a2.531,2.531,0,0,0,0,5.062h27.238a5.315,5.315,0,0,0,5.212-6.358l-2.989-14.944a6.391,6.391,0,0,1,2.076-6.07c9.093-7.886,17.138-16.883,22.9-27.528q1.3-2.4,2.431-4.892c5.877-12.974,7.55-26.206,4.97-39.329Zm-109,37.084,7.576,13.12H90.151a79.825,79.825,0,0,1-5.7-9.229c-.072-.137-.14-.276-.211-.413Zm96.907,5.154c-1.14,2.072-2.366,4.069-3.687,6.022-.171.254-1.1,1.943-1.356,1.943h-3.652l7.575-13.119,2.011,3.485Q183.613,115.457,183.156,116.284Zm-21.876-95.3-1.2,10.83-.09.049a2.266,2.266,0,0,1-2.178,0l-7.78-4.241a7.309,7.309,0,0,0-7.024,0l-8.462,4.614a.841.841,0,0,1-.807,0l-8.457-4.613a7.308,7.308,0,0,0-7.026,0l-7.776,4.24a2.267,2.267,0,0,1-2.178,0l-.09-.049-1.2-10.831ZM104.727,41.691a12.025,12.025,0,0,0,2.394-3.326c.054-.111.575-1.359.559-1.363a7.3,7.3,0,0,0,5.22-.7l7.776-4.24a2.265,2.265,0,0,1,2.178,0l8.458,4.613a5.882,5.882,0,0,0,5.655,0l8.461-4.614a2.267,2.267,0,0,1,2.178,0l7.78,4.241a7.31,7.31,0,0,0,5.22.7,11.841,11.841,0,0,0,1.208,2.528l.016.025a11.678,11.678,0,0,0,3.233,3.38c-.4.189-.785.424-1.173.636l-3.9,2.129a2.267,2.267,0,0,1-2.178,0l-7.78-4.241a7.308,7.308,0,0,0-7.024,0l-7.776,4.24a2.265,2.265,0,0,1-2.178,0l-7.772-4.239a7.308,7.308,0,0,0-7.025,0l-7.776,4.24a2.267,2.267,0,0,1-2.179,0l-5.073-2.767a11.5,11.5,0,0,0,1.5-1.243ZM97.912,46.1l.264-.156,7.7,4.2a7.308,7.308,0,0,0,7.026,0l7.776-4.24a2.266,2.266,0,0,1,2.178,0l7.772,4.239a7.308,7.308,0,0,0,7.026,0l7.776-4.24a2.267,2.267,0,0,1,2.178,0l7.78,4.241a7.31,7.31,0,0,0,7.025,0l7.7-4.2.264.156a41.379,41.379,0,0,1,17.667,21.11H80.245A41.38,41.38,0,0,1,97.912,46.1Zm93.132,45.7c-.023.225-.25,2.61-.329,2.61H77.571a31.892,31.892,0,0,1-.4-3.324,55.234,55.234,0,0,1,1.461-18.82s111.023-.012,111.026,0c.338,1.324.624,2.691.856,4.032A56.945,56.945,0,0,1,191.044,91.805Z" transform="translate(-71.866 0)" fill="#020048"/>
    <path id="Path_15" data-name="Path 15" d="M136.973,172.647a2.531,2.531,0,1,0,2.531,2.531A2.531,2.531,0,0,0,136.973,172.647Z" transform="translate(-113.278 -114.255)" fill="#020048"/>
    <path id="Path_16" data-name="Path 16" d="M169.566,172.647a2.531,2.531,0,1,0,2.531,2.531A2.531,2.531,0,0,0,169.566,172.647Z" transform="translate(-134.848 -114.255)" fill="#020048"/>
    <path id="Path_17" data-name="Path 17" d="M202.159,172.647a2.531,2.531,0,1,0,2.531,2.531A2.531,2.531,0,0,0,202.159,172.647Z" transform="translate(-156.417 -114.255)" fill="#020048"/>
    <path id="Path_18" data-name="Path 18" d="M234.752,172.647a2.531,2.531,0,1,0,2.531,2.531A2.531,2.531,0,0,0,234.752,172.647Z" transform="translate(-177.987 -114.255)" fill="#020048"/>
    <path id="Path_19" data-name="Path 19" d="M267.344,172.647a2.531,2.531,0,1,0,2.531,2.531A2.531,2.531,0,0,0,267.344,172.647Z" transform="translate(-199.556 -114.255)" fill="#020048"/>
    <path id="Path_20" data-name="Path 20" d="M299.937,172.647a2.531,2.531,0,1,0,2.531,2.531A2.531,2.531,0,0,0,299.937,172.647Z" transform="translate(-221.125 -114.255)" fill="#020048"/>
    <path id="Path_21" data-name="Path 21" d="M332.53,172.647a2.531,2.531,0,1,0,2.531,2.531A2.531,2.531,0,0,0,332.53,172.647Z" transform="translate(-242.695 -114.255)" fill="#020048"/>
    <path id="Path_22" data-name="Path 22" d="M365.123,172.647a2.531,2.531,0,1,0,2.531,2.531A2.531,2.531,0,0,0,365.123,172.647Z" transform="translate(-264.264 -114.255)" fill="#020048"/>
    <path id="Path_23" data-name="Path 23" d="M183.331,401.8a2.531,2.531,0,1,0,2.531-2.531A2.531,2.531,0,0,0,183.331,401.8Z" transform="translate(-145.632 -264.23)" fill="#020048"/>
    <path id="Path_24" data-name="Path 24" d="M218.455,399.268a2.531,2.531,0,1,0,2.531,2.531A2.531,2.531,0,0,0,218.455,399.268Z" transform="translate(-167.202 -264.23)" fill="#020048"/>
    <path id="Path_25" data-name="Path 25" d="M248.517,401.8a2.531,2.531,0,1,0,2.531-2.531A2.531,2.531,0,0,0,248.517,401.8Z" transform="translate(-188.771 -264.23)" fill="#020048"/>
    <path id="Path_26" data-name="Path 26" d="M283.641,399.268a2.531,2.531,0,1,0,2.531,2.531A2.531,2.531,0,0,0,283.641,399.268Z" transform="translate(-210.341 -264.23)" fill="#020048"/>
    <path id="Path_27" data-name="Path 27" d="M313.7,401.8a2.531,2.531,0,1,0,2.531-2.531A2.531,2.531,0,0,0,313.7,401.8Z" transform="translate(-231.91 -264.23)" fill="#020048"/>
    <g id="Group_42" data-name="Group 42" transform="translate(12.06 76.656)">
      <g id="Group_37" data-name="Group 37">
        <g id="Group_36" data-name="Group 36">
          <path id="Path_28" data-name="Path 28" d="M114.735,240.01a7.658,7.658,0,0,1-4.595-1.5,6.7,6.7,0,0,1-2.5-6.563,5.935,5.935,0,0,1,4.278-4.743,6.045,6.045,0,0,1,1.638-.226,2.537,2.537,0,0,1,2.537,2.537,2.569,2.569,0,0,1-2.191,2.5c-.62.094-1.03.009-1.241.724a1.634,1.634,0,0,0,.521,1.709,2.945,2.945,0,0,0,3.189.021c.472-.3,2.207-1.924,3.355-3a36.677,36.677,0,0,1,4.16-3.61,7.972,7.972,0,0,1,8.886.279,6.7,6.7,0,0,1,2.5,6.563,5.935,5.935,0,0,1-4.278,4.743,6.044,6.044,0,0,1-1.638.226,2.537,2.537,0,0,1,0-5.073.926.926,0,0,0,.928-.823,1.645,1.645,0,0,0-.552-1.572,2.944,2.944,0,0,0-3.189-.021c-.471.3-2.207,1.924-3.355,3a36.671,36.671,0,0,1-4.16,3.61A8.206,8.206,0,0,1,114.735,240.01Z" transform="translate(-107.524 -226.65)" fill="#020048"/>
        </g>
      </g>
      <g id="Group_39" data-name="Group 39" transform="translate(36.287 0)">
        <g id="Group_38" data-name="Group 38">
          <path id="Path_29" data-name="Path 29" d="M222.025,240.01a7.658,7.658,0,0,1-4.595-1.5,6.7,6.7,0,0,1-2.5-6.563,5.935,5.935,0,0,1,4.278-4.743,6.044,6.044,0,0,1,1.638-.226,2.537,2.537,0,1,1,0,5.073.927.927,0,0,0-.928.823,1.646,1.646,0,0,0,.552,1.572,2.945,2.945,0,0,0,3.189.021c.472-.3,2.207-1.924,3.355-3a36.667,36.667,0,0,1,4.16-3.61,7.972,7.972,0,0,1,8.886.279,6.7,6.7,0,0,1,2.5,6.563,5.934,5.934,0,0,1-4.277,4.743,6.049,6.049,0,0,1-1.638.226,2.537,2.537,0,0,1,0-5.073.92.92,0,0,0,.928-.823,1.645,1.645,0,0,0-.552-1.572,2.944,2.944,0,0,0-3.189-.021c-.472.3-2.207,1.924-3.355,3a36.608,36.608,0,0,1-4.16,3.61,8.2,8.2,0,0,1-4.291,1.216Z" transform="translate(-214.814 -226.65)" fill="#020048"/>
        </g>
      </g>
      <g id="Group_41" data-name="Group 41" transform="translate(72.574 0)">
        <g id="Group_40" data-name="Group 40">
          <path id="Path_30" data-name="Path 30" d="M329.315,240.011a7.658,7.658,0,0,1-4.595-1.5,6.7,6.7,0,0,1-2.5-6.563,5.935,5.935,0,0,1,4.277-4.743,6.042,6.042,0,0,1,1.638-.226,2.537,2.537,0,1,1,0,5.073.963.963,0,0,0-.262.036.878.878,0,0,0-.665.788,1.646,1.646,0,0,0,.552,1.572,2.945,2.945,0,0,0,3.189.021c.472-.3,2.206-1.924,3.355-3a36.667,36.667,0,0,1,4.16-3.61,7.972,7.972,0,0,1,8.886.279,6.7,6.7,0,0,1,2.5,6.563,5.935,5.935,0,0,1-4.277,4.743,6.049,6.049,0,0,1-1.638.226,2.537,2.537,0,0,1,0-5.073.984.984,0,0,0,.263-.036.878.878,0,0,0,.665-.788,1.646,1.646,0,0,0-.552-1.572,2.944,2.944,0,0,0-3.189-.021c-.472.3-2.207,1.924-3.355,3a36.666,36.666,0,0,1-4.16,3.61A8.2,8.2,0,0,1,329.315,240.011Z" transform="translate(-322.105 -226.651)" fill="#020048"/>
        </g>
      </g>
    </g>
  </g>
</svg>
