<svg id="Group_71" data-name="Group 71" xmlns="http://www.w3.org/2000/svg" width="125.744" height="130.566" viewBox="0 0 125.744 130.566">
  <path id="Path_36" data-name="Path 36" d="M155.759,8.854a4.922,4.922,0,0,0-4.185-.4c-.305.114-29.9,10.755-54.78.1C75.436-.612,51.912,3.672,40.982,6.569V4.08A4.3,4.3,0,0,0,36.491,0,4.3,4.3,0,0,0,32,4.08V126.486a4.3,4.3,0,0,0,4.491,4.08,4.3,4.3,0,0,0,4.491-4.08V80.4c7.958-2.358,31.544-7.965,51.977.808a73.69,73.69,0,0,0,29.092,5.557,104.323,104.323,0,0,0,32.891-5.459,4.115,4.115,0,0,0,2.8-3.786V12.241A4.013,4.013,0,0,0,155.759,8.854Zm-7,65.781c-8,2.358-31.58,7.94-51.977-.808-21.35-9.156-44.873-4.872-55.8-1.975V15.129c7.958-2.358,31.544-7.965,51.977.808,21.332,9.148,44.873,4.872,55.8,1.967Z" transform="translate(-32)" fill="#020048"/>
</svg>
