<svg xmlns="http://www.w3.org/2000/svg" width="184.251" height="182.091" viewBox="0 0 184.251 182.091">
  <path id="clay-crafting" d="M173.452,110.573h-30.8a114.829,114.829,0,0,0,7.719-10.8c.541-.827,1.073-1.643,1.609-2.448,5.383-8.093,7.943-14.727,8.3-21.509.337-6.376-1.392-12.885-5.266-19.773l0-.007q-1.354-2.406-3.057-4.877c-6.546-9.481-9.99-15.347-6.231-26.224a2.677,2.677,0,0,0,.187-.534,81.739,81.739,0,0,1,7.5-14.6c.668-1.074,1.911-3.073.853-4.978C153.255,3,151.19,3,150.081,3H77.727c-1.109,0-3.173,0-4.185,1.821-1.058,1.905.185,3.9.849,4.971,8.541,13.819,10.041,21.017,8.978,26.7H52.493l6.56-6.377.073-.074C66.31,22.5,67.275,14.724,61.708,9.236c-2.874-2.83-6.55-2.739-9.6.239C46.2,15.262,40.235,21.194,34.466,26.931q-4.6,4.58-9.214,9.15c-2.488,2.465-2.687,2.626-4.416,2.636a6.083,6.083,0,0,0-5.967-4.949H6.076A6.084,6.084,0,0,0,0,39.846v48.26a6.083,6.083,0,0,0,6.076,6.077h8.793a6.083,6.083,0,0,0,6.076-6.077v-.253c1.337-.007,2.564-.04,3.656-.07,5.667-.158,7.389-.086,9.368,2.554a14.964,14.964,0,0,0,11.963,6.234H75.336c.155.236.317.482.5.753.523.787,1.043,1.585,1.57,2.394a114.507,114.507,0,0,0,7.75,10.855H60.008a10.8,10.8,0,1,0,0,21.594H95.46v9.251a7.4,7.4,0,0,0,7.187,7.587h2.585v14.7h-20.3a7.472,7.472,0,0,0-7.463,7.465v6.47a7.467,7.467,0,0,0,7.463,7.455h63.6a7.467,7.467,0,0,0,7.463-7.455v-6.47a7.472,7.472,0,0,0-7.463-7.465h-20.3v-14.7h2.585A7.4,7.4,0,0,0,138,141.418v-9.251h35.452a10.8,10.8,0,1,0,0-21.594ZM154.657,77.9h-45.19a9.729,9.729,0,0,0-.713-8.343,9.766,9.766,0,0,0,6.507-9.195c0-.111,0-.222-.008-.332h35.788c3.456,6.612,4.42,12.382,3.616,17.87ZM79.864,8.4h68.08a88.6,88.6,0,0,0-6.527,12.684l-20.8-.019h0a2.7,2.7,0,0,0,0,5.4l19.034.017a27.032,27.032,0,0,0-.87,7.769c.3,7.219,3.973,13.075,8.74,19.979.093.135.182.268.273.4H113.394a9.739,9.739,0,0,0-7.88-4.021h-4.229a9.749,9.749,0,0,0-8.716-14.114H88.831a25.764,25.764,0,0,0-.666-10.015l19.993-.017a2.7,2.7,0,0,0,0-5.4h0l-21.762.019A88.471,88.471,0,0,0,79.864,8.4ZM15.546,88.106a.687.687,0,0,1-.678.679H6.076a.687.687,0,0,1-.678-.679V39.846a.687.687,0,0,1,.678-.679h8.793a.687.687,0,0,1,.678.679v48.26ZM45.93,91.173A9.5,9.5,0,0,1,38.287,87.1c-3.741-4.994-7.976-4.875-13.837-4.713-1.054.03-2.238.061-3.506.068V44.109c3.548-.074,4.871-.99,8.105-4.192q4.616-4.57,9.223-9.158C44.033,25.029,49.991,19.1,55.886,13.334c1.149-1.124,1.482-.8,2.033-.253,4.429,4.366.25,10.129-2.667,13.2l-9.364,9.1a3.7,3.7,0,0,0,2.663,6.506H92.568a4.358,4.358,0,0,1,0,8.716H74.421a2.7,2.7,0,0,0,0,5.4h31.092a4.353,4.353,0,0,1,0,8.706H72.962a2.7,2.7,0,0,0,0,5.4h27.369a4.354,4.354,0,0,1,2.206,8.111c-.045.024-.088.053-.131.08a4.338,4.338,0,0,1-2.074.525H68.76a2.7,2.7,0,0,0,0,5.4H82.215a3.475,3.475,0,0,1,0,6.95H45.93Zm36,5.6-.131-.2h.419a8.872,8.872,0,0,0,8.161-12.348h9.956a9.7,9.7,0,0,0,4.151-.929H153.3a51.023,51.023,0,0,1-5.809,11.042c-.544.817-1.085,1.645-1.634,2.486a91.428,91.428,0,0,1-10.391,13.752H92.346a91.28,91.28,0,0,1-10.419-13.8Zm68.669,74.4v6.47a2.088,2.088,0,0,1-2.065,2.057h-63.6a2.088,2.088,0,0,1-2.065-2.057v-6.47a2.068,2.068,0,0,1,2.065-2.067h63.6A2.068,2.068,0,0,1,150.6,171.166ZM122.829,163.7h-12.2v-14.7h12.2Zm50.623-36.932H122.529a2.7,2.7,0,1,0,0,5.4H132.6v9.251a2.047,2.047,0,0,1-1.789,2.189H102.647a2.047,2.047,0,0,1-1.789-2.189v-9.251h9.8a2.7,2.7,0,1,0,0-5.4H60.008a5.4,5.4,0,1,1,0-10.8H173.452a5.4,5.4,0,1,1,0,10.8Z" transform="translate(0 -3)" fill="#020048"/>
</svg>
