<svg xmlns="http://www.w3.org/2000/svg" width="192.3" height="173.166" viewBox="0 0 192.3 173.166">
  <g id="yoga" transform="translate(0)">
    <path id="Path_31" data-name="Path 31" d="M189.3,167.755H165.042a10.614,10.614,0,0,0-7.982-6.984l-5.11-1.151,6.909-30.175c1.43-6.251-2.678-12.386-9.062-14.318-17.172-5.366-9.139-2.262-29.523-6.715-2.148-4.323.008-10.014,1.927-15.076,2.729-7.2,6.4-14.747-13.668-28.167,5.4-.671,9.567-4.77,9.567-9.714V43.015c0-7.827-6.824-14.447-15.787-15.09V8.538C102.312,3.851,98.134,0,92.992,0c-9.183,0-12.158,11.1-6.314,11.1a2.867,2.867,0,0,0,3-2.706A3.156,3.156,0,0,1,93.02,5.411,3.228,3.228,0,0,1,96.3,8.538v56.72c0,2.392,3.2,3.594,5.093,1.943,7.067,4.5,17.008,11.079,17.008,17.961,0,4.966-9.205,17.491-2.715,27a2.984,2.984,0,0,0,1.505,1.12c.512.173,9.132,2.09,16.4,3.216,3.751.581,4.891.83,14.279,3.754a7.018,7.018,0,0,1,5.106,8.1l-3.163,13.813h-7.446l1.286-10.152a2.8,2.8,0,0,0-2.714-3,263.467,263.467,0,0,0-29.08-1.063,35.931,35.931,0,0,1-11.169-2.541c-5.611-2.615-7.1-9.877-5.721-14.551,10.692,1.2,9.93,1.127,10.2,1.127a2.915,2.915,0,0,0,2.978-2.371,2.779,2.779,0,0,0-2.609-3.021l-9.779-1.1c-.2-1.93-.521-5-.894-8.57a2.936,2.936,0,0,0-3.273-2.44,2.8,2.8,0,0,0-2.71,2.948c.412,3.935.758,7.254.951,9.117-7.586,4.5-4.509,2.4-38.967,28.482L30.987,146.971a7.907,7.907,0,0,0-3.518,10.014c4.306,10.008,4.075,9.63,4.84,10.77H3a2.721,2.721,0,1,0,0,5.411H189.3a2.721,2.721,0,1,0,0-5.411ZM112.09,55.454c0,2.426-2.295,4.4-5.115,4.4a19.657,19.657,0,0,1-4.662-.558c0-14.093-.1-12.664.242-12.712a19.562,19.562,0,0,0,9.524-4.018C112.1,42.891,112.09,42.016,112.09,55.454Zm-2.417-18.48a12.672,12.672,0,0,1-7.306,4.139c-.084.016-.056.6-.056-7.752a11.635,11.635,0,0,1,7.362,3.613Zm27.658,97.185c-3.6,28.376-2.669,22.9-4.245,28.579a7.56,7.56,0,0,0,.327,5.016H49.038l-2.1-10.843,11.776-6.753c18.605-8.814,33.193-13.713,43.632-18.382C112.8,134.726,111.945,132.23,137.332,134.159ZM88.481,113.895c-.123,5.475,2.189,11.4,6.961,14.854-9.31,3.866-21.632,8.325-36.632,15.267l-2.575-5.983C79.832,120.167,84.82,116.289,88.481,113.895ZM36.946,164.033l-3.874-9a2.809,2.809,0,0,1,1.25-3.557l16.887-10.145,2.32,5.391-11.5,6.6a2.607,2.607,0,0,0-1.346,2.746l2.259,11.692a6.5,6.5,0,0,1-5.992-3.722Zm105.182,3.722a3.067,3.067,0,0,1-3.211-3.7c1.635-5.888.939-2.071,2.764-16.474h6.893l-3.089,13.491a2.711,2.711,0,0,0,2.214,3.171c7.872,1.773,9.33,1.738,10.775,3.516Z" transform="translate(0 0)" fill="#020048"/>
    <path id="Path_32" data-name="Path 32" d="M207.98,71.8V94.516a10.211,10.211,0,0,0,2.606,6.822c.166,1.637.38,3.816.629,6.352a3.305,3.305,0,0,0,6.579-.644c-.773-7.895-.622-8.478-1.7-9.561a3.776,3.776,0,0,1-1.5-2.97V49.405c0-12.514.818-14.485-7.913-23.214A3.3,3.3,0,1,0,202,30.865c6.4,6.4,5.976,6.808,5.976,15.273a10.4,10.4,0,0,0-7.963,6.711c-1.788,5.078-3.676,8.523-1.431,13.128A10.437,10.437,0,0,0,207.98,71.8Zm-3.608-11.421c1.914-5.437,1.938-6.432,3.608-7.339V65.186A3.669,3.669,0,0,1,204.372,60.382Z" transform="translate(-124.145 -14.803)" fill="#020048"/>
    <path id="Path_33" data-name="Path 33" d="M236.382,247.966a3.339,3.339,0,1,0,3.814,2.7A3.312,3.312,0,0,0,236.382,247.966Z" transform="translate(-146.168 -164.673)" fill="#020048"/>
  </g>
</svg>
